<?xml version="1.0" encoding="UTF-8" standalone="no"?>
<!DOCTYPE svg PUBLIC "-//W3C//DTD SVG 1.1//EN" "http://www.w3.org/Graphics/SVG/1.1/DTD/svg11.dtd">
<svg width="100%" height="100%" viewBox="0 0 354 263" version="1.1" xmlns="http://www.w3.org/2000/svg" xmlns:xlink="http://www.w3.org/1999/xlink" xml:space="preserve" xmlns:serif="http://www.serif.com/" style="fill-rule:evenodd;clip-rule:evenodd;stroke-linecap:round;stroke-linejoin:round;stroke-miterlimit:1.5;">
    <g transform="matrix(1,0,0,1,-335.438,-172.038)">
        <g transform="matrix(0.800596,0,0,0.800596,89.6521,53.66)">
            <g id="logo.svg" transform="matrix(2.63253,0,0,2.63253,556.769,259.331)">
                <g transform="matrix(1,0,0,1,-48.9867,-34.098)">
                    <clipPath id="_clip1">
                        <rect x="0" y="0" width="97.973" height="68.196"/>
                    </clipPath>
                    <g clip-path="url(#_clip1)">
                        <g transform="matrix(1,0,0,1,-0.996999,-15.901)">
                            <path d="M98.5,65.898L77.602,29.699C77.602,29.699 77.602,29.597 77.5,29.597C77.301,29.199 76.899,28.898 76.602,28.597C76.204,28.297 75.802,28.097 75.302,27.996L60,24.699C59.801,24.699 59.5,24.597 59.301,24.597L59.301,21.597C59.301,21.097 59.101,20.699 58.801,20.398C58.501,20.098 58.001,19.898 57.601,19.898L7.101,19.898C6.601,19.898 6.203,20.098 5.903,20.398C5.602,20.699 5.403,21.199 5.403,21.598L5.403,52.199L52.703,52.199L54.203,54.801L1.002,54.801L1.002,58.001C1.002,59.001 1.4,59.801 2.002,60.399C2.603,61 3.4,61.399 4.302,61.399L57.904,61.399L55.705,57.598L70.002,82.398C70.502,83.2 71.303,83.798 72.104,84C73.002,84.2 73.904,84.102 74.803,83.602L97.2,70.704C98,70.204 98.598,69.404 98.802,68.602C99.102,67.7 99.001,66.802 98.501,65.899L98.5,65.898ZM54.301,59.398L50.903,59.398C50.203,59.398 49.602,58.796 49.602,58.098C49.602,57.398 50.203,56.796 50.902,56.796L54.301,56.796C55.001,56.796 55.601,57.398 55.601,58.097C55.601,58.8 55.001,59.398 54.301,59.398ZM58.001,24.601C57.899,24.601 57.899,24.601 58.001,24.601ZM57.501,24.699L57.4,24.699L57.501,24.699ZM57.301,24.8C57.199,24.8 57.101,24.8 57.101,24.902C57.101,24.8 57.199,24.8 57.301,24.8ZM57.001,24.8C56.899,24.8 56.899,24.8 56.801,24.902C56.899,24.898 57.001,24.898 57.001,24.8ZM56.801,24.898C56.699,24.898 56.699,24.898 56.601,24.999C56.601,24.999 56.699,24.999 56.801,24.898ZM56.501,24.999C56.399,24.999 56.399,25.101 56.301,25.101C56.399,25.101 56.501,25.101 56.501,24.999ZM56.301,25.101C56.199,25.101 56.199,25.203 56.101,25.203C56.199,25.199 56.199,25.199 56.301,25.101ZM56.101,25.199C56.001,25.199 56.001,25.3 55.903,25.3C55.899,25.3 56,25.3 56.102,25.199L56.101,25.199ZM34.601,42.199C31.001,41.199 28.801,39.597 28.801,37.699C28.801,35.8 31.001,34.199 34.601,33.199C37.703,32.3 42.001,31.8 46.704,31.8C47.704,31.8 48.704,31.8 49.805,31.902C50.606,31.902 51.407,32.003 52.204,32.101L52.903,29.801L48.801,43.301C48.801,43.401 48.801,43.499 48.7,43.499L46.7,43.499C42,43.601 37.7,42.999 34.602,42.199L34.601,42.199ZM96.301,67.898C96.199,68.098 96.101,68.296 95.902,68.499L73.5,81.397C73.301,81.499 73,81.597 72.801,81.499C72.601,81.397 72.403,81.299 72.2,81.101L51.399,44.898L51.399,44.796C51.297,44.694 51.297,44.596 51.297,44.398L51.297,43.999L55.797,29.397C55.997,28.597 56.597,27.999 57.195,27.597C57.895,27.197 58.695,27.097 59.496,27.197L74.797,30.5C74.899,30.5 75.098,30.601 75.196,30.601C75.297,30.703 75.395,30.703 75.395,30.801L75.395,30.902L96.293,67.203C96.398,67.5 96.398,67.699 96.301,67.898ZM64.699,37.698C64.699,39.598 62.499,41.198 58.898,42.198C56.898,42.8 54.296,43.198 51.5,43.398L52.3,40.698C54.5,40.5 56.5,40.098 58.199,39.698C60.597,39 62.097,38.3 62.097,37.698C62.097,37.598 61.996,37.5 61.797,37.3C61.397,37 60.797,36.601 60.097,36.3C59.397,36 59.097,35.3 59.397,34.601C59.699,33.902 60.397,33.601 61.097,33.902C62.199,34.3 62.996,34.8 63.597,35.3C64.3,36.101 64.699,36.8 64.699,37.699L64.699,37.698ZM70.8,59.398C69.699,59.398 68.601,59.796 67.8,60.698C67,61.499 66.5,62.597 66.5,63.698C66.5,64.8 66.898,65.898 67.8,66.698C68.601,67.5 69.7,68 70.8,68C71.902,68 73,67.602 73.8,66.7C74.601,65.899 75.101,64.801 75.101,63.7C75.101,62.598 74.703,61.5 73.801,60.7C72.898,59.899 71.898,59.399 70.801,59.399L70.8,59.398ZM72,64.898C71.699,65.198 71.199,65.398 70.8,65.398C70.402,65.398 69.902,65.198 69.601,64.898C69.301,64.598 69.101,64.098 69.101,63.698C69.101,63.3 69.301,62.8 69.601,62.499C69.901,62.199 70.401,61.999 70.801,61.999C71.199,61.999 71.699,62.199 72,62.499C72.301,62.799 72.5,63.3 72.5,63.699C72.5,64.101 72.3,64.601 72,64.898ZM83.699,65.499C84.199,65.999 84.199,66.8 83.699,67.3C83.199,67.8 82.398,67.8 81.898,67.3L67.198,52.698C66.698,52.198 66.698,51.398 67.198,50.898C67.698,50.398 68.5,50.398 69,50.898L83.699,65.499ZM80.1,50.2C78.998,50.2 77.9,50.598 77.1,51.5C76.3,52.301 75.8,53.399 75.8,54.5C75.8,55.601 76.198,56.7 77.1,57.5C77.9,58.301 78.998,58.801 80.1,58.801C81.201,58.801 82.3,58.403 83.1,57.501C83.9,56.699 84.4,55.601 84.4,54.501C84.4,53.401 84.002,52.301 83.1,51.501C82.3,50.601 81.198,50.199 80.1,50.199L80.1,50.2ZM81.3,55.7C80.998,56 80.498,56.2 80.1,56.2C79.701,56.2 79.201,56 78.9,55.7C78.6,55.399 78.4,54.899 78.4,54.5C78.4,54.101 78.6,53.602 78.9,53.301C79.201,53.001 79.701,52.801 80.1,52.801C80.498,52.801 80.998,53.001 81.3,53.301C81.602,53.601 81.8,54.101 81.8,54.501C81.8,54.901 81.6,55.301 81.3,55.699L81.3,55.7ZM46.697,40.896C42.197,40.896 38.197,40.396 35.197,39.596C32.799,38.896 31.299,38.197 31.299,37.596C31.299,36.994 32.799,36.295 35.197,35.596C38.095,34.795 42.095,34.295 46.697,34.295C47.697,34.295 48.697,34.295 49.595,34.396C50.197,34.396 50.795,34.498 51.396,34.498L49.498,40.698C48.599,40.896 47.698,40.896 46.698,40.896L46.697,40.896ZM2.697,52.298L0.997,52.298L0.997,19.1C0.997,18.202 1.397,17.401 1.897,16.8C2.497,16.198 3.295,15.901 4.197,15.901L60.3,15.901C61.199,15.901 62,16.3 62.6,16.8C63.202,17.401 63.6,18.198 63.6,19.1L63.6,25.5L61.902,25.101L61.902,21.601C61.902,20.402 61.402,19.301 60.601,18.5C59.782,17.671 58.664,17.203 57.499,17.199L7.101,17.199C5.902,17.199 4.801,17.699 4,18.499C3.199,19.299 2.699,20.399 2.699,21.601L2.697,52.298ZM25.8,70.6C26.3,69.901 26.699,69.1 27,68.3C27.5,66.999 27.898,65.499 28,63.999L36.8,63.999C36.902,65.6 37.3,66.999 37.8,68.299C38.1,69.1 38.5,69.901 39,70.6L25.8,70.6ZM47.8,73.499C48,73.698 48.1,73.897 48.1,74.198C48.1,74.499 48,74.698 47.8,74.898C47.6,75.096 47.402,75.198 47.1,75.198L17.1,75.198C16.8,75.198 16.6,75.096 16.402,74.898C16.202,74.698 16.101,74.498 16.101,74.198C16.101,73.898 16.202,73.698 16.401,73.498C16.601,73.3 16.801,73.198 17.101,73.198L47.101,73.198C47.301,73.198 47.601,73.3 47.801,73.498L47.8,73.499Z" style="fill:white;"/>
                        </g>
                    </g>
                </g>
            </g>
            <g transform="matrix(0.303191,0,0,0.303191,459.718,115.044)">
                <path d="M408.806,109.355L414.727,165.243L432.124,130.862L425.989,168.903L463.63,127.169L435.57,175.863L469.853,158.274L442.53,185.444L497.513,173.804L446.189,196.706L484.264,202.627L446.189,208.548L497.513,231.449L442.53,219.81L469.853,246.98L435.57,229.39L463.63,278.085L425.989,236.351L432.124,274.392L414.727,240.01L408.806,295.898L402.885,240.01L385.488,274.392L391.623,236.351L353.983,278.085L382.043,229.39L347.759,246.98L375.082,219.81L320.1,231.449L371.423,208.548L333.348,202.627L371.423,196.706L320.1,173.804L375.082,185.444L347.759,158.274L382.043,175.863L353.983,127.169L391.623,168.903L385.488,130.862L402.885,165.243L408.806,109.355Z" style="fill:none;stroke:rgb(255,200,75);stroke-width:2.22px;"/>
            </g>
            <g transform="matrix(0.195824,0,0,0.195824,503.61,136.799)">
                <path d="M408.806,109.355L414.727,165.243L432.124,130.862L425.989,168.903L463.63,127.169L435.57,175.863L469.853,158.274L442.53,185.444L497.513,173.804L446.189,196.706L484.264,202.627L446.189,208.548L497.513,231.449L442.53,219.81L469.853,246.98L435.57,229.39L463.63,278.085L425.989,236.351L432.124,274.392L414.727,240.01L408.806,295.898L402.885,240.01L385.488,274.392L391.623,236.351L353.983,278.085L382.043,229.39L347.759,246.98L375.082,219.81L320.1,231.449L371.423,208.548L333.348,202.627L371.423,196.706L320.1,173.804L375.082,185.444L347.759,158.274L382.043,175.863L353.983,127.169L391.623,168.903L385.488,130.862L402.885,165.243L408.806,109.355Z" style="fill:rgb(240,221,170);"/>
            </g>
        </g>
        <g transform="matrix(0.551326,0,0,0.551326,229.762,154.228)">
            <g transform="matrix(1,0,0,1,-6.59048,-187.865)">
                <g transform="matrix(2.53865,0,0,2.53865,-550.264,-742.176)">
                    <g transform="matrix(30.4105,0,0,30.4105,346.651,541.878)">
                    </g>
                    <text x="298.101px" y="541.878px" style="font-family:'LucidaBright-Demi', 'Lucida Bright', serif;font-weight:600;font-size:30.41px;fill:white;">E<tspan x="322.462px " y="541.878px ">A</tspan></text>
                </g>
                <g transform="matrix(2.53865,0,0,2.53865,-128.577,-742.421)">
                    <g transform="matrix(30.4105,0,0,30.4105,377.857,541.878)">
                    </g>
                    <text x="298.101px" y="541.878px" style="font-family:'LucidaBright-Demi', 'Lucida Bright', serif;font-weight:600;font-size:30.41px;fill:white;">H<tspan x="328.461px 359.177px " y="541.878px 541.878px ">OP</tspan></text>
                </g>
                <g transform="matrix(2.53865,0,0,2.53865,-327.569,-741.026)">
                    <g transform="matrix(30.4105,0,0,30.4105,319.899,541.878)">
                    </g>
                    <text x="298.101px" y="541.878px" style="font-family:'LucidaBright-Demi', 'Lucida Bright', serif;font-weight:600;font-size:30.41px;fill:white;">Y</text>
                </g>
                <g transform="matrix(1,0,0,1,-491.903,7.6856)">
                    <g transform="matrix(5.86148,0,0,5.86148,231.126,-3297.66)">
                        <g transform="matrix(30.4105,0,0,30.4105,117.397,675.31)">
                        </g>
                        <text x="100.499px" y="675.31px" style="font-family:'LucidaBright-Demi', 'Lucida Bright', serif;font-weight:600;font-size:30.41px;fill:white;">S</text>
                    </g>
                    <g transform="matrix(1,0,0,1,755.553,293.856)">
                        <rect x="108.647" y="210.844" width="7.13" height="183.091" style="fill:white;"/>
                    </g>
                    <g transform="matrix(1,0,0,1,766.758,293.856)">
                        <rect x="108.647" y="210.844" width="7.13" height="183.091" style="fill:white;"/>
                    </g>
                </g>
                <g transform="matrix(1,0,0,1,-293.282,9.08036)">
                    <g transform="matrix(5.86148,0,0,5.86148,231.126,-3297.66)">
                        <g transform="matrix(30.4105,0,0,30.4105,117.397,675.31)">
                        </g>
                        <text x="100.499px" y="675.31px" style="font-family:'LucidaBright-Demi', 'Lucida Bright', serif;font-weight:600;font-size:30.41px;fill:white;">S</text>
                    </g>
                    <g transform="matrix(1,0,0,1,755.553,293.856)">
                        <rect x="108.647" y="210.844" width="7.13" height="183.091" style="fill:white;"/>
                    </g>
                    <g transform="matrix(1,0,0,1,766.758,293.856)">
                        <rect x="108.647" y="210.844" width="7.13" height="183.091" style="fill:white;"/>
                    </g>
                </g>
            </g>
            <g transform="matrix(1.06064,0,0,1.06064,-50.2611,310.389)">
                <path d="M231.194,133.953L828.9,133.953" style="fill:none;stroke:white;stroke-width:6.18px;stroke-linecap:butt;"/>
            </g>
        </g>
    </g>
</svg>
