<svg xmlns="http://www.w3.org/2000/svg" version="1.1" xlink="http://www.w3.org/1999/xlink" xmlns:svgjs="http://svgjs.com/svgjs" width="100%" height="100%" viewBox="0.9969985485076904 15.9010009765625 97.97342681884766 68.196044921875"><g fill="#cb2020"><path d="M98.5 65.898L77.602 29.699s0-.102-.102-.102c-.199-.398-.601-.699-.898-1-.398-.3-.8-.5-1.3-.601L60 24.699c-.199 0-.5-.102-.699-.102v-3c0-.5-.2-.898-.5-1.199-.3-.3-.8-.5-1.2-.5h-50.5c-.5 0-.898.2-1.198.5-.301.301-.5.801-.5 1.2v30.601h47.3l1.5 2.602H1.002v3.2c0 1 .398 1.8 1 2.398.601.601 1.398 1 2.3 1h53.602l-2.199-3.801 14.297 24.8c.5.802 1.301 1.4 2.102 1.602.898.2 1.8.102 2.699-.398L97.2 70.704c.8-.5 1.398-1.3 1.602-2.102.3-.902.199-1.8-.301-2.703zm-44.199-6.5h-3.398c-.7 0-1.301-.602-1.301-1.3 0-.7.601-1.302 1.3-1.302h3.399c.7 0 1.3.602 1.3 1.301 0 .703-.6 1.301-1.3 1.301zm3.7-34.797c-.102 0-.102 0 0 0-.102 0-.102 0 0 0zm-.302.098zm-.199 0h-.1.101zm-.199.101c-.102 0-.2 0-.2.102 0-.102.098-.102.2-.102zm-.3 0c-.102 0-.102 0-.2.102.098-.004.2-.004.2-.102zm-.2.098c-.102 0-.102 0-.2.101 0 0 .098 0 .2-.101zm-.3.101c-.102 0-.102.102-.2.102.098 0 .2 0 .2-.102zm-.2.102c-.102 0-.102.102-.2.102.098-.004.098-.004.2-.102zm-.2.098c-.1 0-.1.101-.198.101-.004 0 .097 0 .199-.101zm-21.5 17c-3.6-1-5.8-2.602-5.8-4.5 0-1.899 2.2-3.5 5.8-4.5 3.102-.899 7.4-1.399 12.103-1.399 1 0 2 0 3.101.102.801 0 1.602.101 2.399.199l.699-2.3-4.102 13.5c0 .1 0 .198-.101.198h-2c-4.7.102-9-.5-12.098-1.3zm14 1.902zm0 .297zm47.7 23.5c-.102.2-.2.398-.399.601L73.5 81.397c-.199.102-.5.2-.699.102-.2-.102-.398-.2-.601-.398L51.399 44.898v-.102c-.102-.102-.102-.2-.102-.398v-.399l4.5-14.602c.2-.8.8-1.398 1.398-1.8.7-.4 1.5-.5 2.301-.4L74.797 30.5c.102 0 .301.101.399.101.101.102.199.102.199.2v.101l20.898 36.301c.105.297.105.496.008.695zm-31.602-30.2c0 1.9-2.2 3.5-5.801 4.5-2 .602-4.602 1-7.398 1.2l.8-2.7c2.2-.198 4.2-.6 5.899-1 2.398-.698 3.898-1.398 3.898-2 0-.1-.101-.198-.3-.398-.4-.3-1-.699-1.7-1-.7-.3-1-1-.7-1.699.302-.699 1-1 1.7-.699 1.102.398 1.899.898 2.5 1.398.703.801 1.102 1.5 1.102 2.399zm6.101 21.7c-1.101 0-2.199.398-3 1.3-.8.801-1.3 1.899-1.3 3 0 1.102.398 2.2 1.3 3 .801.802 1.9 1.302 3 1.302 1.102 0 2.2-.398 3-1.3.801-.801 1.301-1.899 1.301-3 0-1.102-.398-2.2-1.3-3-.903-.801-1.903-1.301-3-1.301zm1.2 5.5c-.301.3-.801.5-1.2.5-.398 0-.898-.2-1.199-.5-.3-.3-.5-.8-.5-1.2 0-.398.2-.898.5-1.199.3-.3.8-.5 1.2-.5.398 0 .898.2 1.199.5s.5.801.5 1.2c0 .402-.2.902-.5 1.199zm11.699.601c.5.5.5 1.301 0 1.801s-1.301.5-1.801 0l-14.7-14.602c-.5-.5-.5-1.3 0-1.8s1.302-.5 1.802 0zM80.1 50.2c-1.102 0-2.2.398-3 1.3-.8.801-1.3 1.899-1.3 3s.398 2.2 1.3 3c.8.801 1.898 1.301 3 1.301 1.101 0 2.2-.398 3-1.3.8-.802 1.3-1.9 1.3-3s-.398-2.2-1.3-3c-.8-.9-1.902-1.302-3-1.302zm1.2 5.5c-.302.3-.802.5-1.2.5-.399 0-.899-.2-1.2-.5-.3-.301-.5-.801-.5-1.2s.2-.898.5-1.199c.301-.3.801-.5 1.2-.5.398 0 .898.2 1.2.5s.5.8.5 1.2-.2.8-.5 1.198zM46.697 40.896c-4.5 0-8.5-.5-11.5-1.3-2.398-.7-3.898-1.399-3.898-2 0-.602 1.5-1.301 3.898-2 2.898-.801 6.898-1.301 11.5-1.301 1 0 2 0 2.898.101.602 0 1.2.102 1.801.102l-1.898 6.2c-.899.198-1.8.198-2.8.198zm-44 11.402h-1.7V19.1c0-.898.4-1.699.9-2.3.6-.602 1.398-.899 2.3-.899H60.3c.899 0 1.7.399 2.3.899.602.601 1 1.398 1 2.3v6.4l-1.698-.399v-3.5c0-1.199-.5-2.3-1.301-3.101a4.382 4.382 0 0 0-3.102-1.301H7.101c-1.199 0-2.3.5-3.101 1.3s-1.301 1.9-1.301 3.102zM25.8 70.6c.5-.699.899-1.5 1.2-2.3.5-1.301.898-2.801 1-4.301h8.8c.102 1.601.5 3 1 4.3.3.801.7 1.602 1.2 2.301zm22 2.899c.2.199.3.398.3.699s-.1.5-.3.7c-.2.198-.398.3-.7.3h-30c-.3 0-.5-.102-.698-.3-.2-.2-.301-.4-.301-.7s.101-.5.3-.7c.2-.198.4-.3.7-.3h30c.2 0 .5.102.7.3z" fill-rule="evenodd"></path></g></svg>