<svg xmlns="http://www.w3.org/2000/svg" version="1.1" xlink="http://www.w3.org/1999/xlink" xmlns:svgjs="http://svgjs.com/svgjs" width="100%" height="100%" viewBox="1.5399999618530273 -64.2699966430664 462 65.37000274658203"><g fill="#cb2020"><path d="M12.9 -1.97C16.68 0.07 21.3 1.1 26.76 1.1C30.37 1.1 33.34 0.78 35.68 0.15C38.02 -0.49 40.43 -1.66 42.92 -3.36L38.97 -9.65C37.12 -8.48 35.28 -7.64 33.45 -7.13C31.62 -6.62 29.59 -6.36 27.34 -6.36C22.57 -6.36 18.96 -7.82 16.52 -10.75C14.09 -13.67 12.87 -17.86 12.87 -23.32C12.87 -28.88 13.96 -33.21 16.16 -36.3C18.35 -39.4 21.54 -40.94 25.74 -40.94C27.88 -40.94 29.66 -40.68 31.07 -40.14L31.07 -34.73L42.55 -34.73L42.55 -43.94C40.26 -45.5 37.79 -46.63 35.13 -47.34C32.47 -48.05 29.27 -48.4 25.52 -48.4C20.15 -48.4 15.68 -47.33 12.1 -45.18C8.52 -43.04 5.86 -40.09 4.13 -36.34C2.4 -32.58 1.54 -28.25 1.54 -23.32C1.54 -18.5 2.49 -14.24 4.39 -10.56C6.29 -6.88 9.13 -4.02 12.9 -1.97Z M50.52 -5.01C54.27 -0.94 60 1.1 67.7 1.1C75.4 1.1 81.13 -0.94 84.88 -5.01C88.64 -9.08 90.51 -15.23 90.51 -23.47C90.51 -31.8 88.69 -38.04 85.03 -42.19C81.37 -46.33 75.6 -48.4 67.7 -48.4C59.81 -48.4 54.03 -46.33 50.37 -42.19C46.72 -38.04 44.89 -31.8 44.89 -23.47C44.89 -15.23 46.77 -9.08 50.52 -5.01ZM74.32 -8.04C72.64 -6.92 70.43 -6.36 67.7 -6.36C64.97 -6.36 62.78 -6.92 61.12 -8.04C59.47 -9.16 58.25 -10.97 57.47 -13.45C56.69 -15.94 56.3 -19.28 56.3 -23.47C56.3 -27.76 56.69 -31.17 57.47 -33.71C58.25 -36.24 59.47 -38.08 61.12 -39.23C62.78 -40.37 64.97 -40.94 67.7 -40.94C70.43 -40.94 72.64 -40.37 74.32 -39.23C76 -38.08 77.23 -36.24 78.01 -33.71C78.79 -31.17 79.18 -27.76 79.18 -23.47C79.18 -19.28 78.79 -15.94 78.01 -13.45C77.23 -10.97 76 -9.16 74.32 -8.04Z M90.66 -7.38L90.66 0L111.28 0L111.28 -7.38L109.52 -7.38C107.57 -7.38 106.6 -8.29 106.6 -10.09L106.6 -29.68L113.84 -12.94L121 -12.94L128.17 -29.68L128.17 -10.09C128.17 -8.29 127.22 -7.38 125.32 -7.38L123.56 -7.38L123.56 0L144.11 0L144.11 -7.38L142.35 -7.38C141.38 -7.38 140.67 -7.62 140.23 -8.08C139.79 -8.54 139.57 -9.26 139.57 -10.24L139.57 -37.07C139.57 -38.04 139.79 -38.76 140.23 -39.23C140.67 -39.69 141.38 -39.92 142.35 -39.92L144.11 -39.92L144.11 -47.3L128.09 -47.3L117.49 -22.66L106.74 -47.3L90.66 -47.3L90.66 -39.92L92.41 -39.92C93.44 -39.92 94.18 -39.69 94.64 -39.23C95.11 -38.76 95.34 -38.04 95.34 -37.07L95.34 -10.24C95.34 -9.26 95.11 -8.54 94.64 -8.08C94.18 -7.62 93.44 -7.38 92.41 -7.38Z M147.25 -7.38L147.25 0L167.94 0L167.94 -7.38L166.19 -7.38C164.24 -7.38 163.26 -8.29 163.26 -10.09L163.26 -16.6L173.06 -16.6C178.32 -16.6 182.49 -17.97 185.56 -20.73C188.63 -23.48 190.17 -27.32 190.17 -32.24C190.17 -37.17 188.66 -40.91 185.63 -43.47C182.61 -46.02 178.44 -47.3 173.13 -47.3L147.25 -47.3L147.25 -39.92L148.93 -39.92C150.88 -39.92 151.86 -39.02 151.86 -37.21L151.86 -10.09C151.86 -8.29 150.88 -7.38 148.93 -7.38ZM171.52 -24.05L163.26 -24.05L163.26 -39.92L171.52 -39.92C174.11 -39.92 175.97 -39.33 177.12 -38.16C178.26 -37 178.83 -35.02 178.83 -32.24C178.83 -29.42 178.25 -27.34 177.08 -26.03C175.91 -24.71 174.06 -24.05 171.52 -24.05Z M189.95 -7.38L189.95 0L209.61 0L209.61 -7.38L208.3 -7.38C207.42 -7.38 206.81 -7.57 206.47 -7.93C206.13 -8.3 205.96 -8.92 205.96 -9.8L205.96 -17.11L212.47 -17.11L217.88 -7.38L215.24 -7.38L215.24 0L233.3 0L233.3 -7.38L231.84 -7.38C230.77 -7.38 229.93 -7.54 229.32 -7.86C228.71 -8.18 228.19 -8.72 227.75 -9.5L222.63 -18.5C225.89 -19.72 228.36 -21.51 230.01 -23.87C231.67 -26.24 232.5 -29.1 232.5 -32.46C232.5 -37.34 230.99 -41.03 227.97 -43.54C224.94 -46.05 220.75 -47.3 215.39 -47.3L189.95 -47.3L189.95 -39.92L191.63 -39.92C193.63 -39.92 194.63 -39.02 194.63 -37.21L194.63 -10.09C194.63 -8.29 193.63 -7.38 191.63 -7.38ZM213.71 -24.49L205.96 -24.49L205.96 -39.92L213.71 -39.92C216.34 -39.92 218.24 -39.35 219.41 -38.2C220.58 -37.06 221.17 -35.14 221.17 -32.46C221.17 -29.78 220.57 -27.78 219.38 -26.47C218.18 -25.15 216.29 -24.49 213.71 -24.49Z M234.62 -7.38L234.62 0L254.43 0L254.43 -7.38L251.36 -7.38L253.56 -14.11L265.03 -14.11L267.08 -7.38L264.01 -7.38L264.01 0L283.75 0L283.75 -7.38L281.85 -7.38C280.53 -7.38 279.6 -7.54 279.04 -7.86C278.48 -8.18 278.02 -8.87 277.68 -9.94L264.89 -47.3L253.7 -47.3L240.69 -9.94C240.3 -8.87 239.83 -8.18 239.3 -7.86C238.76 -7.54 237.86 -7.38 236.59 -7.38ZM263.28 -20.03L255.31 -20.03L259.4 -32.61Z M285.07 -7.38L285.07 0L305.83 0L305.83 -7.38L304.08 -7.38C302.18 -7.38 301.22 -8.29 301.22 -10.09L301.22 -19.96L311.17 -19.96L311.17 -27.34L301.22 -27.34L301.22 -39.92L308.61 -39.92C310.56 -39.92 311.53 -38.99 311.53 -37.14L311.53 -36.04L321.99 -36.04L321.99 -47.3L285.07 -47.3L285.07 -39.92L286.82 -39.92C288.77 -39.92 289.75 -39.02 289.75 -37.21L289.75 -10.24C289.75 -9.26 289.51 -8.54 289.05 -8.08C288.59 -7.62 287.85 -7.38 286.82 -7.38Z M336.54 -64.27L331.05 -51.11L340.78 -51.11L349.04 -64.27ZM311.61 -7.38L311.61 0L331.42 0L331.42 -7.38L328.35 -7.38L330.54 -14.11L342.02 -14.11L344.07 -7.38L341 -7.38L341 0L360.74 0L360.74 -7.38L358.84 -7.38C357.52 -7.38 356.58 -7.54 356.02 -7.86C355.46 -8.18 355.01 -8.87 354.67 -9.94L341.88 -47.3L330.69 -47.3L317.68 -9.94C317.29 -8.87 316.82 -8.18 316.29 -7.86C315.75 -7.54 314.85 -7.38 313.58 -7.38ZM340.27 -20.03L332.3 -20.03L336.39 -32.61Z M369.77 -1.97C373.55 0.07 378.16 1.1 383.62 1.1C387.23 1.1 390.2 0.78 392.54 0.15C394.88 -0.49 397.3 -1.66 399.78 -3.36L395.83 -9.65C393.98 -8.48 392.14 -7.64 390.31 -7.13C388.49 -6.62 386.45 -6.36 384.21 -6.36C379.43 -6.36 375.82 -7.82 373.39 -10.75C370.95 -13.67 369.73 -17.86 369.73 -23.32C369.73 -28.88 370.83 -33.21 373.02 -36.3C375.22 -39.4 378.41 -40.94 382.6 -40.94C384.74 -40.94 386.52 -40.68 387.94 -40.14L387.94 -34.73L399.42 -34.73L399.42 -43.94C397.12 -45.5 394.65 -46.63 391.99 -47.34C389.34 -48.05 386.13 -48.4 382.38 -48.4C377.02 -48.4 372.55 -47.33 368.96 -45.18C365.38 -43.04 362.72 -40.09 360.99 -36.34C359.26 -32.58 358.4 -28.25 358.4 -23.32C358.4 -18.5 359.35 -14.24 361.25 -10.56C363.15 -6.88 365.99 -4.02 369.77 -1.97Z M402.85 -7.38L402.85 0L423.54 0L423.54 -7.38L421.79 -7.38C419.89 -7.38 418.94 -8.29 418.94 -10.09L418.94 -37.21C418.94 -39.02 419.89 -39.92 421.79 -39.92L423.54 -39.92L423.54 -47.3L402.85 -47.3L402.85 -39.92L404.53 -39.92C405.56 -39.92 406.3 -39.7 406.76 -39.26C407.23 -38.82 407.46 -38.14 407.46 -37.21L407.46 -10.24C407.46 -9.26 407.24 -8.54 406.8 -8.08C406.36 -7.62 405.61 -7.38 404.53 -7.38Z M426.61 -7.38L426.61 0L463.54 0L463.54 -13.09L453.08 -13.09L453.08 -10.24C453.08 -8.33 452.11 -7.38 450.16 -7.38L442.77 -7.38L442.77 -37.21C442.77 -39.02 443.75 -39.92 445.7 -39.92L447.38 -39.92L447.38 -47.3L426.61 -47.3L426.61 -39.92L428.37 -39.92C430.32 -39.92 431.29 -39.02 431.29 -37.21L431.29 -10.24C431.29 -9.26 431.06 -8.54 430.6 -8.08C430.13 -7.62 429.37 -7.38 428.29 -7.38Z"></path></g></svg>